<svg xmlns="http://www.w3.org/2000/svg" viewBox="0 0 400 400" fill="none">
  <circle cx="200" cy="220" r="120" fill="#3DBB7D" opacity="0.08"/>
  <rect x="120" y="250" width="160" height="70" rx="10" fill="#2D2D2D"/>
  <rect x="120" y="242" width="160" height="16" rx="5" fill="#3D3D3D"/>
  <rect x="128" y="262" width="18" height="48" rx="2" fill="white"/>
  <rect x="150" y="262" width="18" height="48" rx="2" fill="white"/>
  <rect x="172" y="262" width="18" height="48" rx="2" fill="white"/>
  <rect x="194" y="262" width="18" height="48" rx="2" fill="white"/>
  <rect x="216" y="262" width="18" height="48" rx="2" fill="white"/>
  <rect x="238" y="262" width="18" height="48" rx="2" fill="white"/>
  <rect x="260" y="262" width="18" height="48" rx="2" fill="white"/>
  <rect x="143" y="262" width="10" height="28" rx="2" fill="#1a1a1a"/>
  <rect x="165" y="262" width="10" height="28" rx="2" fill="#1a1a1a"/>
  <rect x="209" y="262" width="10" height="28" rx="2" fill="#1a1a1a"/>
  <rect x="231" y="262" width="10" height="28" rx="2" fill="#1a1a1a"/>
  <rect x="253" y="262" width="10" height="28" rx="2" fill="#1a1a1a"/>
  <circle cx="200" cy="170" r="35" fill="#FFDAB9"/>
  <path d="M165 165Q170 130 200 125Q230 130 235 165Q235 148 226 143Q218 138 200 137Q182 138 174 143Q165 148 165 165Z" fill="#4A3728"/>
  <circle cx="190" cy="168" r="3" fill="#2D2D2D"/>
  <circle cx="210" cy="168" r="3" fill="#2D2D2D"/>
  <path d="M192 182Q200 188 208 182" stroke="#3DBB7D" stroke-width="2" fill="none" stroke-linecap="round"/>
  <ellipse cx="200" cy="215" rx="28" ry="30" fill="#3DBB7D"/>
  <circle cx="110" cy="140" r="25" fill="#3DBB7D" opacity="0.15"/>
  <text x="100" y="147" font-size="18" fill="#3DBB7D" font-weight="bold" text-anchor="middle">30</text>
  <text x="100" y="160" font-size="10" fill="#3DBB7D" text-anchor="middle">min</text>
  <path d="M135 140Q150 120 165 140" stroke="#3DBB7D" stroke-width="2" fill="none" stroke-linecap="round" opacity="0.4"/>
  <text x="300" y="180" font-size="24" fill="#3DBB7D" opacity="0.5">♫</text>
  <text x="85" y="220" font-size="20" fill="#FFB547" opacity="0.4">♪</text>
  <circle cx="310" y="250" r="8" fill="#3DBB7D" opacity="0.15"/>
  <path d="M306 250L310 245L314 250" stroke="#3DBB7D" stroke-width="1.5" fill="none" stroke-linecap="round"/>
</svg>
