<svg xmlns="http://www.w3.org/2000/svg" viewBox="0 0 400 400" fill="none">
  <circle cx="200" cy="220" r="120" fill="#FFB547" opacity="0.08"/>
  <rect x="80" y="260" width="240" height="15" rx="7" fill="#E8E0D4"/>
  <rect x="90" y="200" width="60" height="60" rx="8" fill="#FFB547" opacity="0.3"/>
  <rect x="170" y="170" width="60" height="90" rx="8" fill="#FFB547" opacity="0.5"/>
  <rect x="250" y="140" width="60" height="120" rx="8" fill="#FFB547" opacity="0.8"/>
  <circle cx="120" cy="180" r="28" fill="#FFDAB9"/>
  <path d="M92 175Q97 155 120 150Q143 155 148 175Q148 160 140 155Q132 150 120 149Q108 150 100 155Q92 160 92 175Z" fill="#4A3728"/>
  <path d="M111 177Q115 173 119 177" stroke="#2D2D2D" stroke-width="2" fill="none" stroke-linecap="round"/>
  <path d="M123 177Q127 173 131 177" stroke="#2D2D2D" stroke-width="2" fill="none" stroke-linecap="round"/>
  <path d="M112 188Q120 195 128 188" stroke="#FFB547" stroke-width="2" fill="none" stroke-linecap="round"/>
  <circle cx="105" cy="185" r="5" fill="#FF6B6B" opacity="0.2"/>
  <circle cx="135" cy="185" r="5" fill="#FF6B6B" opacity="0.2"/>
  <path d="M120 208L120 250" stroke="#FFB547" stroke-width="3" stroke-dasharray="6 4"/>
  <polygon points="280,120 283,128 292,128 285,133 287,142 280,137 273,142 275,133 268,128 277,128" fill="#FFB547"/>
  <text x="285" y="165" font-size="24" fill="#FFB547" font-weight="bold">★</text>
  <path d="M140 220Q160 200 180 220" stroke="#3DBB7D" stroke-width="3" fill="none" stroke-linecap="round" opacity="0.5"/>
  <polygon points="180,215 185,220 180,225" fill="#3DBB7D" opacity="0.5"/>
  <text x="310" y="200" font-size="28" fill="#FFB547" opacity="0.5">♪</text>
</svg>
