<svg xmlns="http://www.w3.org/2000/svg" viewBox="0 0 400 400" fill="none">
  <circle cx="200" cy="220" r="120" fill="#FF6B6B" opacity="0.08"/>
  <rect x="100" y="240" width="200" height="80" rx="12" fill="#2D2D2D"/>
  <rect x="100" y="230" width="200" height="20" rx="6" fill="#3D3D3D"/>
  <rect x="110" y="255" width="22" height="55" rx="3" fill="white"/>
  <rect x="137" y="255" width="22" height="55" rx="3" fill="white"/>
  <rect x="164" y="255" width="22" height="55" rx="3" fill="white"/>
  <rect x="191" y="255" width="22" height="55" rx="3" fill="white"/>
  <rect x="218" y="255" width="22" height="55" rx="3" fill="white"/>
  <rect x="245" y="255" width="22" height="55" rx="3" fill="white"/>
  <rect x="272" y="255" width="22" height="55" rx="3" fill="white"/>
  <rect x="126" y="255" width="14" height="33" rx="2" fill="#1a1a1a"/>
  <rect x="153" y="255" width="14" height="33" rx="2" fill="#1a1a1a"/>
  <rect x="207" y="255" width="14" height="33" rx="2" fill="#1a1a1a"/>
  <rect x="234" y="255" width="14" height="33" rx="2" fill="#1a1a1a"/>
  <rect x="261" y="255" width="14" height="33" rx="2" fill="#1a1a1a"/>
  <ellipse cx="200" cy="195" rx="35" ry="45" fill="#FFB547"/>
  <circle cx="200" cy="130" r="40" fill="#FFDAB9"/>
  <path d="M160 125Q165 85 200 80Q235 85 240 125Q240 105 230 100Q220 95 200 93Q180 95 170 100Q160 105 160 125Z" fill="#4A3728"/>
  <path d="M183 128Q188 122 193 128" stroke="#2D2D2D" stroke-width="2.5" fill="none" stroke-linecap="round"/>
  <path d="M207 128Q212 122 217 128" stroke="#2D2D2D" stroke-width="2.5" fill="none" stroke-linecap="round"/>
  <path d="M190 142Q200 152 210 142" stroke="#FF6B6B" stroke-width="2.5" fill="none" stroke-linecap="round"/>
  <circle cx="178" cy="138" r="7" fill="#FF6B6B" opacity="0.25"/>
  <circle cx="222" cy="138" r="7" fill="#FF6B6B" opacity="0.25"/>
  <path d="M165 185Q140 150 130 120" stroke="#FFDAB9" stroke-width="12" fill="none" stroke-linecap="round"/>
  <path d="M235 185Q260 150 270 120" stroke="#FFDAB9" stroke-width="12" fill="none" stroke-linecap="round"/>
  <polygon points="130,105 133,113 142,113 135,118 137,127 130,122 123,127 125,118 118,113 127,113" fill="#FFB547"/>
  <polygon points="270,105 273,113 282,113 275,118 277,127 270,122 263,127 265,118 258,113 267,113" fill="#FFB547"/>
  <polygon points="200,60 202,66 209,66 204,70 206,76 200,72 194,76 196,70 191,66 198,66" fill="#FF6B6B"/>
  <text x="310" y="160" font-size="28" fill="#FF6B6B" opacity="0.6">♪</text>
  <text x="85" y="180" font-size="22" fill="#FFB547" opacity="0.5">♫</text>
</svg>
